<?xml version="1.0" encoding="UTF-8"?>
<svg width="8in" height="8in" version="1.1" viewBox="0 0 200 200" xmlns="http://www.w3.org/2000/svg" xmlns:cc="http://creativecommons.org/ns#" xmlns:dc="http://purl.org/dc/elements/1.1/" xmlns:rdf="http://www.w3.org/1999/02/22-rdf-syntax-ns#">
 <metadata>
  <rdf:RDF>
   <cc:Work rdf:about="">
    <dc:format>image/svg+xml</dc:format>
    <dc:type rdf:resource="http://purl.org/dc/dcmitype/StillImage"/>
    <dc:title/>
   </cc:Work>
  </rdf:RDF>
 </metadata>
 <g>
  <rect width="200" height="200" fill="#d5e5f2"/>
  <g fill="#85afcb">
   <g fill="#85afcb">
    <rect width="25" height="25"/>
    <rect x="25" y="25" width="25" height="25"/>
    <rect x="50" width="25" height="25"/>
    <rect x="75" y="25" width="25" height="25"/>
    <rect y="50" width="25" height="25"/>
    <rect x="25" y="75" width="25" height="25"/>
    <rect x="50" y="50" width="25" height="25"/>
    <rect x="75" y="75" width="25" height="25"/>
    <rect x="100" width="25" height="25"/>
    <rect x="125" y="25" width="25" height="25"/>
    <rect x="150" width="25" height="25"/>
    <rect x="175" y="25" width="25" height="25"/>
    <rect x="100" y="50" width="25" height="25"/>
    <rect x="125" y="75" width="25" height="25"/>
    <rect x="150" y="50" width="25" height="25"/>
    <rect x="175" y="75" width="25" height="25"/>
    <rect y="100" width="25" height="25"/>
    <rect x="25" y="125" width="25" height="25"/>
    <rect x="50" y="100" width="25" height="25"/>
    <rect x="75" y="125" width="25" height="25"/>
    <rect y="150" width="25" height="25"/>
    <rect x="25" y="175" width="25" height="25"/>
    <rect x="50" y="150" width="25" height="25"/>
    <rect x="75" y="175" width="25" height="25"/>
    <rect x="100" y="100" width="25" height="25"/>
    <rect x="125" y="125" width="25" height="25"/>
    <rect x="150" y="100" width="25" height="25"/>
    <rect x="175" y="125" width="25" height="25"/>
    <rect x="100" y="150" width="25" height="25"/>
    <rect x="125" y="175" width="25" height="25"/>
    <rect x="150" y="150" width="25" height="25"/>
    <rect x="175" y="175" width="25" height="25"/>
   </g>
  </g>
 </g>
</svg>
