<?xml version="1.0" encoding="UTF-8"?>
<svg width="1in" height="1in" version="1.1" viewBox="0 0 25.4 25.4" xmlns="http://www.w3.org/2000/svg" xmlns:cc="http://creativecommons.org/ns#" xmlns:dc="http://purl.org/dc/elements/1.1/" xmlns:rdf="http://www.w3.org/1999/02/22-rdf-syntax-ns#">
 <metadata>
  <rdf:RDF>
   <cc:Work rdf:about="">
    <dc:format>image/svg+xml</dc:format>
    <dc:type rdf:resource="http://purl.org/dc/dcmitype/StillImage"/>
    <dc:title/>
   </cc:Work>
  </rdf:RDF>
 </metadata>
 <path d="m9.8485 13.097-1.3632 5.3563 3.7352 0.11007-5.17e-4 0.02842 0.48007-0.01395 0.48007 0.01395-5.17e-4 -0.02842 3.7352-0.11007-1.3627-5.3563-2.852 0.03049z" fill="#fff" stroke="#000"/>
 <g fill="#fff" stroke="#000" stroke-linecap="round">
  <path d="m12.366 1.6423v1.3255h-1.2666v0.54002h1.2666v1.8226c-1.2063 0.20116-2.1317 1.4719-2.1317 3.0231v3.2804c0 1.6919 1.0306 0.18578 2.3964 0.18578 1.3658 0 2.5346 1.5061 2.5346-0.18578v-3.2804c0-1.5512-0.92533-2.8219-2.1317-3.0231v-1.8226h1.2666v-0.54002h-1.2666v-1.3255z" stroke="#000" stroke-linecap="round" stroke-width=".90743" style="paint-order:fill markers stroke"/>
  <g transform="translate(-.33539 -.12316)">
   <g transform="translate(.58748)" fill="#fff">
    <g fill="#fff" stroke="#000" stroke-linecap="butt">
     <path d="m9.2018 13.419s-6.0705-2.5188-5.8932-5.3385c0.17728-2.8197 2.6971-3.1827 2.6971-3.1827s4.2316-0.7741 6.3245 7.3866c0.50714 1.9775-0.52765 0.57744-1.0863 0.69714z"/>
     <path d="m15.694 13.419s6.0705-2.5188 5.8932-5.3385c-0.17728-2.8197-2.6971-3.1827-2.6971-3.1827s-4.2316-0.7741-6.3244 7.3866c-0.50714 1.9775 0.52765 0.57744 1.0863 0.69714z"/>
    </g>
   </g>
  </g>
  <g>
   <rect x="7.1985" y="17.674" width="11.003" height="3.2549" style="paint-order:fill markers stroke"/>
   <rect x="4.56" y="19.446" width="16.28" height="3.5651" style="paint-order:fill markers stroke"/>
   <rect x="6.1586" y="12.561" width="13.083" height="1.8753" stroke-width="1.219" style="paint-order:fill markers stroke"/>
  </g>
 </g>
</svg>
