<?xml version="1.0" encoding="UTF-8"?>
<svg width="1in" height="1in" version="1.1" viewBox="0 0 25.4 25.4" xmlns="http://www.w3.org/2000/svg" xmlns:cc="http://creativecommons.org/ns#" xmlns:dc="http://purl.org/dc/elements/1.1/" xmlns:rdf="http://www.w3.org/1999/02/22-rdf-syntax-ns#">
 <metadata>
  <rdf:RDF>
   <cc:Work rdf:about="">
    <dc:format>image/svg+xml</dc:format>
    <dc:type rdf:resource="http://purl.org/dc/dcmitype/StillImage"/>
    <dc:title/>
   </cc:Work>
  </rdf:RDF>
 </metadata>
 <g transform="translate(1.9073e-7 .42749)" fill="#fff" stroke="#000">
  <path d="m11.546 12.864c-0.48329 0.0123-1.0263 0.32686-1.5271 1.3029-1.2181 2.374 1.5171 5.0318 2.5508 5.622l0.0073 0.17649c0.0333-0.0326 0.07796-0.06379 0.12226-0.09484 0.04429 0.03105 0.08896 0.06225 0.12226 0.09484l0.0073-0.17649c1.0336-0.59019 3.7689-3.248 2.5508-5.622-0.99292-1.9351-2.2132-2.065-2.7427-1.5971-0.26238-0.2319-0.61616 0.28211-1.091 0.29419z"/>
  <rect x="7.1984" y="17.247" width="11.003" height="3.2549" stroke-linecap="round" style="paint-order:fill markers stroke"/>
  <rect x="4.56" y="19.019" width="16.28" height="3.5651" stroke-linecap="round" style="paint-order:fill markers stroke"/>
  <path d="m12.693 3.3793c-0.20477-0.014333-0.44876 0.061892-0.7381 0.24738-7.5072 4.8126-2.1125 8.2092-2.1125 8.2092l2.566 0.22512c0.0018 0.0093 0.01398 0.07619 0.01398 0.07619l0.42742-0.03759 0.12832 0.01137s0.0042-0.02191 0.0043-0.02276l2.5756-0.22611s5.3947-3.3965-2.1125-8.2092c-0.22804-0.14621-0.42728-0.22286-0.60202-0.24244-0.04782-0.0155-0.09753-0.027463-0.15052-0.03117z"/>
  <circle cx="12.7" cy="2.4664" r="1.3993" stroke-linecap="round" style="paint-order:fill markers stroke"/>
  <rect x="8.2978" y="11.822" width="8.8045" height="1.8753" stroke-linecap="round" style="paint-order:fill markers stroke"/>
 </g>
</svg>
