<?xml version="1.0" encoding="UTF-8"?>
<svg width="1in" height="1in" version="1.1" viewBox="0 0 25.4 25.4" xmlns="http://www.w3.org/2000/svg" xmlns:cc="http://creativecommons.org/ns#" xmlns:dc="http://purl.org/dc/elements/1.1/" xmlns:rdf="http://www.w3.org/1999/02/22-rdf-syntax-ns#">
 <metadata>
  <rdf:RDF>
   <cc:Work rdf:about="">
    <dc:format>image/svg+xml</dc:format>
    <dc:type rdf:resource="http://purl.org/dc/dcmitype/StillImage"/>
    <dc:title/>
   </cc:Work>
  </rdf:RDF>
 </metadata>
 <g fill="#f7f6f6" stroke="#000">
  <path transform="scale(.26458)" d="m47.896 17.682-3.7617 10.848a14.668 13.754 0 0 0-5.4863 2.6719l-15.506-8.6035 11.887 28.494 2.1758 0.013672a14.668 13.754 0 0 0 10.795 4.4453 14.668 13.754 0 0 0 10.797-4.4453l2.1738-0.013672 11.887-28.494-11.604 6.4395-3.9004 2.1641a14.668 13.754 0 0 0-5.7148-2.7285l-3.7422-10.791z" stroke-linecap="round" stroke-width="4.0412" style="paint-order:fill markers stroke"/>
  <path d="m9.8485 13.097-1.3632 5.3563 3.7352 0.11007-5.17e-4 0.02842 0.48007-0.01395 0.48007 0.01395-5.17e-4 -0.02842 3.7352-0.11007-1.3627-5.3563-2.852 0.03049z"/>
  <g stroke-linecap="round">
   <rect x="7.1985" y="17.674" width="11.003" height="3.2549" style="paint-order:fill markers stroke"/>
   <rect x="4.56" y="19.446" width="16.28" height="3.5651" style="paint-order:fill markers stroke"/>
   <rect x="8.2978" y="12.561" width="8.8045" height="1.8753" style="paint-order:fill markers stroke"/>
   <circle cx="6.134" cy="5.702" r="1.5897" style="paint-order:fill markers stroke"/>
   <circle cx="19.266" cy="5.702" r="1.5897" style="paint-order:fill markers stroke"/>
   <circle cx="12.7" cy="3.7668" r="1.5897" style="paint-order:fill markers stroke"/>
  </g>
 </g>
</svg>
